# xmcd
#
# Track frame offsets:
#	150
#	34135
#	56941
#	81242
#	97706
#	141685
#	175055
#
# Disc length: 3482 seconds
#
# Revision: 0
# Processed by: cddbd v1.5.1PL0 Copyright (c) Steve Scherf et al.
# Submitted via: EasyCDDAExtractor 7.1.2.1
#
DISCID=5d0d9807
DTITLE=Deep Purple - Praha, Ceska Republika - CD 2
DYEAR=2000
DGENRE=Hard Rock
TTITLE0=When A Blind Man Cries
TTITLE1=Ted The Mechanic
TTITLE2=Watching The Sky
TTITLE3=The Well Tempered Guitar
TTITLE4=Pictures Of Home
TTITLE5=Sometimes I Feel Like Screaming
TTITLE6=1st Movement
EXTD=
EXTT0=
EXTT1=
EXTT2=
EXTT3=
EXTT4=
EXTT5=
EXTT6=
PLAYORDER=
